<?xml version="1.0" encoding="UTF-8"?>
<svg version="1.1" viewBox="0 0 2048 770" width="457" height="172" xmlns="http://www.w3.org/2000/svg">
<path transform="translate(112,94)" d="m0 0h119l3 2 1 9v76l-1 123 3-3 7-27 14-43 23-79 13-44 6-12 2-2h140l-1 8-16 50-18 52-18 53-12 35-12 36-7 22 1 8 6 20 17 56 30 96 16 53 17 54 9 33-1 5h-157l-3-4-5-17-19-77-20-82-7-25-5-23-1-6-1 1v217l-1 12-3 4h-142l-5-2-1-6-1-44v-463l1-57 2-8z" fill="#FEFEFE"/>
<path transform="translate(1334,94)" d="m0 0h143l3 1v253h2l4-20 8-28 12-43 15-53 3-5h126l1 3-11 38-15 50-19 63-9 30v15l20 81 18 73 12 49 16 64 1 9-1 1h-139l-4-9-11-46-16-72-6-24-5-22v-2h-2v173l-5 2h-140l-5-2-1-4v-569l3-5z" fill="#FEFEFE"/>
<path transform="translate(718,199)" d="m0 0h132l2 5 3 25 3 32 7 65 2 30 3 18 3 41 2 12 3 35 2 15 3 40 4 33v6h2v-30l2-12 4-61 1-2 2-31 1-25 2-10 2-31 1-32 2-7 3-53 4-44 2-17 1-2h125l2 1v11l-4 32-7 46-6 43-3 24-4 30-3 20-9 63-2 18-3 16-12 84-9 62-3 22-1 3-2 1h-187l-3-3-6-34-4-25-4-29-3-21-5-34-7-46-5-35-7-47-8-53-3-20-4-24-2-18-3-17-3-22-2-11-3-24-1-11z" fill="#FEFEFE"/>
<path transform="translate(513,199)" d="m0 0h141l1 1v473l-5 2h-140l-5-2-1-4-1-75v-361l1-33z" fill="#FEFEFE"/>
<path transform="translate(1106,199)" d="m0 0h147l2 1v470l-1 4-3 1h-145l-1-1-1-13v-456z" fill="#FEFEFE"/>
<path transform="translate(1812,285)" d="m0 0h24l19 2 10 3 19 10 12 9 13 12 9 12 11 23 4 14 2 15v15l-2 17-3 12-9 19-8 12-11 13-10 9-13 8-15 7-14 4-20 2h-15l-22-3-13-5-21-11-12-11-13-13-11-19-8-23-1-5v-36l4-16 7-18 9-14 9-11 9-9 10-7 16-9 12-5 11-2z" fill="#010101"/>
<path transform="translate(512,94)" d="m0 0h140l3 2v73l-5 2h-142l-4-2-1-12v-30l1-29 2-3z" fill="#FEFEFE"/>
<path transform="translate(1106,94)" d="m0 0h143l5 1 1 2v72l-10 2h-137l-3-1-1-7v-64z" fill="#FEFEFE"/>
</svg>
